<?xml version="1.0" encoding="UTF-8" standalone="no"?>
<!DOCTYPE svg PUBLIC "-//W3C//DTD SVG 1.1//EN" "http://www.w3.org/Graphics/SVG/1.1/DTD/svg11.dtd">
<svg width="100%" height="100%" viewBox="0 0 64 64" version="1.1" xmlns="http://www.w3.org/2000/svg" xmlns:xlink="http://www.w3.org/1999/xlink" xml:space="preserve" xmlns:serif="http://www.serif.com/" style="fill-rule:evenodd;clip-rule:evenodd;stroke-linejoin:round;stroke-miterlimit:2;">
    <g transform="matrix(1,0,0,1,-3.66208,-13.3031)">
        <path d="M9.302,64.673L8.437,64.589L7.573,64.323L6.155,63.363L5.194,61.945L4.929,61.081L4.845,60.216L5.097,58.678L5.139,58.56L16.217,28.911L16.187,28.994L16.805,27.747L17.712,26.705L19.095,25.849L20.152,25.553L21.128,25.473L26.112,25.473L27.089,25.553L28.145,25.849L29.528,26.705L30.436,27.747L31.053,28.994L31.024,28.911L42.101,58.56L42.143,58.678L42.396,60.216L42.312,61.081L42.046,61.945L41.085,63.363L39.668,64.323L38.803,64.589L37.938,64.673L33.935,64.673L32.777,64.552L31.911,64.274L30.481,63.282L29.805,62.443L29.387,61.673L29.336,61.546L28.054,58.193L19.186,58.193L17.904,61.546L17.966,61.37L17.523,62.332L16.765,63.301L16.066,63.883L15.32,64.286L14.456,64.556L13.305,64.673L9.302,64.673ZM11.416,58.915C11.368,59.025 11.334,59.129 11.304,59.223L11.366,59.047L11.416,58.915Z"/>
        <path d="M9.302,61.173C9.044,61.173 8.82,61.078 8.63,60.888C8.44,60.698 8.345,60.474 8.345,60.216C8.345,60.075 8.369,59.931 8.418,59.785L19.495,30.136C19.605,29.817 19.788,29.543 20.044,29.315C20.299,29.087 20.661,28.973 21.128,28.973L26.112,28.973C26.58,28.973 26.941,29.087 27.197,29.315C27.452,29.543 27.635,29.817 27.745,30.136L38.822,59.785C38.871,59.931 38.896,60.075 38.896,60.216C38.896,60.474 38.801,60.698 38.61,60.888C38.42,61.078 38.196,61.173 37.938,61.173L33.935,61.173C33.516,61.173 33.208,61.07 33.011,60.864C32.814,60.658 32.679,60.469 32.605,60.296L30.463,54.693L16.777,54.693L14.635,60.296C14.579,60.469 14.452,60.658 14.252,60.864C14.052,61.07 13.737,61.173 13.305,61.173L9.302,61.173ZM18.385,49.41L28.855,49.41L23.611,35.173L18.385,49.41Z" style="fill:white;"/>
        <path d="M41.305,46.856L40.249,46.061L39.724,45.336L39.351,44.508C39.351,44.508 39.126,42.859 39.124,42.922C39.148,42.005 39.424,40.866 40.129,39.56C40.688,38.524 41.53,37.489 42.702,36.495C43.775,35.585 45.147,34.798 46.844,34.184C48.427,33.61 50.34,33.293 52.591,33.293C54.975,33.293 56.988,33.617 58.639,34.203C60.522,34.871 62.012,35.809 63.149,36.951C64.329,38.138 65.19,39.518 65.733,41.09C66.228,42.521 66.48,44.027 66.48,45.609L66.48,60.068L66.156,61.793L65.721,62.626L65.141,63.335L64.432,63.914L63.599,64.349L61.874,64.673L58.14,64.673L56.415,64.349L55.581,63.914L55.544,63.884C55.098,64.094 54.623,64.285 54.117,64.457C52.837,64.891 51.316,65.133 49.546,65.133C47.397,65.133 45.454,64.69 43.71,63.841C41.87,62.946 40.418,61.725 39.33,60.21C38.135,58.547 37.532,56.675 37.532,54.592C37.532,51.375 38.789,48.796 41.305,46.856Z"/>
        <path d="M49.546,61.633C47.962,61.633 46.527,61.32 45.242,60.694C43.956,60.069 42.933,59.227 42.173,58.168C41.412,57.11 41.032,55.918 41.032,54.592C41.032,52.445 41.903,50.739 43.646,49.475C45.389,48.212 47.684,47.365 50.532,46.935L56.829,46.016L56.829,45.042C56.829,43.753 56.505,42.756 55.857,42.051C55.209,41.346 54.108,40.994 52.553,40.994C51.432,40.994 50.527,41.214 49.839,41.656C49.15,42.098 48.634,42.682 48.291,43.407C48.063,43.817 47.716,44.022 47.249,44.022L43.635,44.022C43.292,44.022 43.035,43.926 42.863,43.733C42.69,43.54 42.611,43.299 42.623,43.01C42.636,42.519 42.831,41.923 43.209,41.223C43.587,40.523 44.173,39.837 44.966,39.164C45.759,38.492 46.782,37.929 48.036,37.475C49.29,37.02 50.808,36.793 52.591,36.793C54.512,36.793 56.138,37.029 57.468,37.501C58.798,37.973 59.865,38.613 60.667,39.419C61.47,40.226 62.056,41.164 62.425,42.233C62.795,43.302 62.98,44.428 62.98,45.609L62.98,60.068C62.98,60.387 62.875,60.651 62.666,60.86C62.457,61.069 62.193,61.173 61.874,61.173L58.14,61.173C57.82,61.173 57.556,61.069 57.347,60.86C57.139,60.651 57.034,60.387 57.034,60.068L57.034,58.261C56.641,58.838 56.111,59.38 55.442,59.889C54.774,60.397 53.957,60.815 52.993,61.142C52.028,61.47 50.879,61.633 49.546,61.633ZM51.109,57.283C52.195,57.283 53.175,57.051 54.048,56.588C54.92,56.124 55.611,55.405 56.121,54.431C56.63,53.458 56.885,52.235 56.885,50.764L56.885,49.817L52.259,50.551C50.442,50.826 49.095,51.272 48.218,51.888C47.341,52.505 46.903,53.254 46.903,54.138C46.903,54.826 47.104,55.402 47.506,55.865C47.908,56.329 48.43,56.681 49.073,56.922C49.716,57.163 50.395,57.283 51.109,57.283Z" style="fill:white;"/>
    </g>
</svg>
